<svg width="1200" height="675" viewBox="0 0 1200 675" xmlns="http://www.w3.org/2000/svg">
  <defs>
    <linearGradient id="bg" x1="0" y1="0" x2="1" y2="1">
      <stop offset="0" stop-color="#101216"/>
      <stop offset="0.55" stop-color="#0b0d10"/>
      <stop offset="1" stop-color="#08090b"/>
    </linearGradient>
    <radialGradient id="aur" cx="0.5" cy="0.5" r="0.5">
      <stop offset="0" stop-color="#2dd4bf" stop-opacity="0.16"/>
      <stop offset="0.6" stop-color="#2dd4bf" stop-opacity="0.05"/>
      <stop offset="1" stop-color="#2dd4bf" stop-opacity="0"/>
    </radialGradient>
    <radialGradient id="wsh" cx="0.5" cy="0.5" r="0.5">
      <stop offset="0" stop-color="#f5f5f7" stop-opacity="0.05"/>
      <stop offset="1" stop-color="#f5f5f7" stop-opacity="0"/>
    </radialGradient>
  </defs>
  <rect width="1200" height="675" fill="url(#bg)"/>
  <ellipse cx="880" cy="140" rx="620" ry="420" fill="url(#aur)"/>
  <ellipse cx="180" cy="620" rx="500" ry="300" fill="url(#wsh)"/>
  <g transform="translate(760,110)" stroke="#f5f5f7" stroke-opacity="0.14" stroke-width="7" fill="none" stroke-linecap="round" stroke-linejoin="round">
    <path d="M220 55 L380 148 V335 L220 428 L60 335 V148 Z"/>
    <circle cx="220" cy="240" r="60"/>
    <path d="M220 180 V120"/><path d="M220 300 V365"/>
    <path d="M168 210 L110 178"/><path d="M272 210 L330 178"/>
    <path d="M168 272 L110 305" stroke-opacity="0.09"/><path d="M272 272 L330 305" stroke-opacity="0.09"/>
  </g>
  <rect x="64" y="560" width="30" height="3" rx="1.5" fill="#2dd4bf" fill-opacity="0.8"/>
  <text x="64" y="596" font-family="-apple-system,BlinkMacSystemFont,'Segoe UI',sans-serif" font-size="21" letter-spacing="7" fill="#f5f5f7" fill-opacity="0.5">SPECTRE&#160;&#160;MACRO&#160;&#160;WIRE</text>
</svg>